<?xml version="1.0" encoding="utf-8"?>
<!-- Generator: Adobe Illustrator 22.0.1, SVG Export Plug-In . SVG Version: 6.00 Build 0)  -->
<svg version="1.1" id="Layer_1" xmlns="http://www.w3.org/2000/svg" xmlns:xlink="http://www.w3.org/1999/xlink" x="0px" y="0px"
	 viewBox="0 0 43 50" style="enable-background:new 0 0 43 50;" xml:space="preserve">
<style type="text/css">
	.st0{fill:#FFFFFF;}
</style>
<path id="iwlfa" class="st0" d="M39.5,30.8c4.2,2.4,4.6,5.5,1,8.8c-2.8,2.6-5.8,5-8.5,7.6c-2,2.1-4.9,3.2-7.8,2.8l-1.2-0.3
	C17,44.9,12.5,38.8,7.8,32.9c-0.2-0.3-0.3-0.8-0.4-1.2l-1.2-4.2l1.4-1l0,0.1c0.5,1.7,1.1,3.5,1.6,5.2c0.3,0.9,0.8,1.7,1.4,2.4
	c3.5,3.9,6.9,7.9,10.5,11.8c3.2,3.4,8.3,2.8,11-0.9c0.5-0.7,0.5-1.1-0.1-1.5c-0.2-0.1-0.3-0.2-0.5-0.3c-2.8-1.4-1-4.8-2.4-6.3
	c-1.7-1.8-3.6-3-2.9-5.9c0.2-0.9-0.2-1.2-0.9-1.6c-3.9-2.6-4.1-5.3-0.6-8.5c4.2-3.9,8.6-7.7,12.9-11.6l1.6-1.5
	c1.5-1.4,2.5-3,0.9-4.8c-1.6-1.9-3.3-1.1-4.8,0.3L20.9,16.1l-5.9,5.3h0L13.3,23l-0.8-1l1.2-1.1l-0.3-0.3
	c3.7-3.3,15.3-13.8,21.1-18.9c2.4-2.1,5-2,6.8,0.1c1.8,2.1,1.5,4.8-0.7,6.8c-2.8,2.6-5.6,5.1-8.6,7.7c2.7,1.3,4.3,3.1,3.7,6.2
	c-0.1,0.7,0,1.1,0.7,1.4c2.9,1.2,3.4,3.6,2.7,6.4C39,30.6,39.1,30.8,39.5,30.8 M24.8,27.1c1,1,2.4,1.4,3.6,0.4
	c1.8-1.4,3.5-2.9,5-4.5c0.2-0.3,0.4-0.6,0.5-1c0.1-0.3,0.1-0.7,0.1-1.1l0-0.1c-0.2-1.2-1.1-2.2-2.2-2.5c-0.8-0.2-1.7,0-2.3,0.5
	c-1.6,1.4-3.2,2.8-4.7,4.3C23.5,24.4,23.8,25.9,24.8,27.1 M28.8,34.4c1.1,1,2.4,0.9,3.4,0.1c1.7-1.3,3.3-2.8,4.8-4.3
	c0.9-0.9,1-2.2,0.3-3.4c-0.7-1.1-1.7-1.4-2.9-1.3c-0.3,0-0.7,0.2-1.1,0.5c-0.8,0.5-1.5,1-2.2,1.7c-1.5,1.3-2.8,2.8-3.1,3.7l0,0.1
	C27.5,32.4,27.9,33.6,28.8,34.4 M40.5,37.2c0.8-0.8,0.9-2.1,0.2-3.2c-0.6-1.1-1.7-1.5-2.9-1.4c-0.2,0-0.5,0.1-0.7,0.2
	c-0.2,0.1-0.4,0.2-0.6,0.3c-2,1.2-5,4.2-5.3,5.5c-0.3,1,0,2,0.7,2.7l0.3,0.3c1,0.8,2.2,0.8,3.1,0.1C37.2,40.3,38.9,38.8,40.5,37.2"
	/>
<path id="iwlfb" class="st0" d="M7.8,26.6L2.4,19c-1.1-1.6-0.6-3.7,1.4-4.4c2.1-0.8,2.7,0.7,4.3,2.3c3.5,3.7,1.7,1.5,4.6,5.1
	l0.1,0.2c0-0.1,0-0.1-0.1-0.2l1.1-1l-1.9-2.1c-0.2-0.2-0.2-0.3-2.7-3.1c-0.2-0.2-0.4-0.5-0.6-0.7c-1.1-1.3-2.6-3.2-5.6-2.1
	c-1.4,0.5-2.5,1.6-3,3.1c-0.4,1.4-0.1,2.9,0.8,4.1l2,2.8c0.1,0.2,0.2,0.3,0.2,0.3l0.6,0.8l2.8,3.9v0L7.8,26.6z"/>
</svg>
