<?xml version="1.0" encoding="utf-8"?>
<!-- Generator: Adobe Illustrator 22.0.1, SVG Export Plug-In . SVG Version: 6.00 Build 0)  -->
<svg version="1.1" id="Layer_1" xmlns="http://www.w3.org/2000/svg" xmlns:xlink="http://www.w3.org/1999/xlink" x="0px" y="0px"
	 viewBox="0 0 58 58" style="enable-background:new 0 0 58 58;" xml:space="preserve">
<style type="text/css">
	.st0{fill:#EFEFEF;}
</style>
<path id="bq76a" class="st0" d="M48.3,14.1c0-2.5-2-4.5-4.5-4.5H14.1c-2.5,0-4.5,2-4.5,4.5v29.7c0,2.5,2,4.5,4.5,4.5h29.7
	c2.5,0,4.5-2,4.5-4.5V14.1z M58,0v58H0V0H58z M21.6,29c0-4.1,3.3-7.4,7.4-7.4s7.4,3.3,7.4,7.4s-3.3,7.4-7.4,7.4S21.6,33.1,21.6,29z
	 M40.8,27.3c-0.1-0.5-0.2-1-0.3-1.6h3.1V42c0,0.8-0.7,1.5-1.5,1.5H16c-0.8,0-1.5-0.7-1.5-1.5V25.8h3.1c-0.3,1-0.4,2.1-0.5,3.2
	C17,35.6,22.3,41,28.9,41c6.6,0.1,12-5.2,12.1-11.7C40.9,28.6,40.9,28,40.8,27.3L40.8,27.3z M43.5,19.5c0,0.8-0.7,1.5-1.5,1.5h-3.5
	c-0.8,0-1.5-0.7-1.5-1.5V16c0-0.8,0.7-1.5,1.5-1.5H42c0.8,0,1.5,0.7,1.5,1.5V19.5z"/>
</svg>
