<?xml version="1.0" encoding="utf-8"?>
<!-- Generator: Adobe Illustrator 22.0.1, SVG Export Plug-In . SVG Version: 6.00 Build 0)  -->
<svg version="1.1" id="Layer_1" xmlns="http://www.w3.org/2000/svg" xmlns:xlink="http://www.w3.org/1999/xlink" x="0px" y="0px"
	 viewBox="0 0 738.5 512.8" style="enable-background:new 0 0 738.5 512.8;" xml:space="preserve">
<style type="text/css">
	.st0{fill:#F83E3E;}
</style>
<path id="ip8ma" class="st0" d="M738.5,332.9c0,46.8-39.4,88.6-103.4,119.4l11.1,44.3c2.5,11.1-7.4,19.7-17.2,14.8l-65.2-33.2
	c-62.8,18.5-128,27.1-194.5,25.8C164.9,504,0,427.7,0,331.7c0-55.4,56.6-105.8,145.2-136.6c0-1.2,0-1.2,0-2.5
	c6.2-59.1,36.9-112,83.7-147.7S334.8-5.5,392.6,1.9c100.9,12.3,180.9,91.1,195.7,192C679.4,225.9,738.5,276.3,738.5,332.9
	 M267.1,100.3c-25.8,19.7-43.1,46.8-52.9,77.5c50.5-11.1,102.2-16,153.8-16c52.9,0,103.4,4.9,148.9,14.8
	C494.8,111.4,432,67.1,363.1,65.9C327.4,67.1,294.2,79.4,267.1,100.3 M192,393.2c33.2,0,59.1-28.3,59.1-62.8S224,267.7,192,267.7
	s-59.1,28.3-59.1,62.8C132.9,364.9,160,393.2,192,393.2 M369.2,393.2c33.2,0,59.1-28.3,59.1-62.8s-27.1-62.8-59.1-62.8
	s-59.1,28.3-59.1,62.8S336,393.2,369.2,393.2 M546.5,393.2c33.2,0,59.1-28.3,59.1-62.8s-27.1-62.8-59.1-62.8
	c-32,0-59.1,28.3-59.1,62.8C487.4,364.9,514.5,393.2,546.5,393.2"/>
</svg>
