<?xml version="1.0" encoding="utf-8"?>
<!-- Generator: Adobe Illustrator 22.0.1, SVG Export Plug-In . SVG Version: 6.00 Build 0)  -->
<svg version="1.1" id="Layer_1" xmlns="http://www.w3.org/2000/svg" xmlns:xlink="http://www.w3.org/1999/xlink" x="0px" y="0px"
	 viewBox="0 0 512 512" style="enable-background:new 0 0 512 512;" xml:space="preserve">
<style type="text/css">
	.st0{fill:#F83E3E;}
</style>
<path id="ip8ma" class="st0" d="M507,308c0,31.8-26.8,60.2-70.3,81.2l7.5,30.1c1.7,7.5-5,13.4-11.7,10l-44.3-22.6
	c-42.7,12.5-87,18.4-132.2,17.6c-138.9,0-251-51.9-251-117.1c0-37.6,38.5-72,98.7-92.9c0-0.8,0-0.8,0-1.7
	c4.2-40.2,25.1-76.1,56.9-100.4s72-34.3,111.3-29.3c68.6,8.4,123,61.9,133,130.5C466.8,235.2,507,269.5,507,308 M186.6,149.9
	c-17.6,13.4-29.3,31.8-36,52.7c34.3-7.5,69.4-10.9,104.6-10.9c36,0,70.3,3.3,101.2,10c-15.1-44.3-57.7-74.5-104.6-75.3
	C227.6,127.3,205,135.7,186.6,149.9 M135.5,349c22.6,0,40.2-19.2,40.2-42.7s-18.4-42.7-40.2-42.7c-21.8,0-40.2,19.2-40.2,42.7
	C95.4,329.8,113.8,349,135.5,349 M256,349c22.6,0,40.2-19.2,40.2-42.7s-18.4-42.7-40.2-42.7s-40.2,19.2-40.2,42.7
	C215.8,329.8,233.4,349,256,349 M376.5,349c22.6,0,40.2-19.2,40.2-42.7s-18.4-42.7-40.2-42.7s-40.2,19.2-40.2,42.7
	C336.3,329.8,354.7,349,376.5,349"/>
</svg>
