<?xml version="1.0" encoding="utf-8"?>
<!-- Generator: Adobe Illustrator 22.0.1, SVG Export Plug-In . SVG Version: 6.00 Build 0)  -->
<svg version="1.1" id="Layer_1" xmlns="http://www.w3.org/2000/svg" xmlns:xlink="http://www.w3.org/1999/xlink" x="0px" y="0px"
	 viewBox="0 0 1439 456" style="enable-background:new 0 0 1439 456;" xml:space="preserve">
<style type="text/css">
	.st0{fill:#EEEEEE;}
</style>
<path id="lubbock" class="st0" d="M1426.1,156.1l-7,57.8l-78.7,1.9l-29.2,1.5l-4.1-24l-34.4-0.8l1.1,15.2l-40.3-1.1l-1.8-111.4
	l-0.9-4.8l-21.6-1.6l-0.3,5.3h-5.8v-6h-8.7v-2.7h-13v4.8h-12.1V93h-13.6l-2.9-3h-18.6v114.9h-15.8v-67l-4.3-12h-6.5v11.3h-7.5v-11.4
	h-8v12l-2.1,66.6h-20.8V27.1l-18.3-3.4l-79,3.4l-0.3-25.2l-12-1.9l-30.8,0.9v115.6h-8.7v3.7l-2.8-5.3h-9v5.3H886v10.7
	c0,0-3.4-0.6-5.4,1.4h-20V145H815v2.3h7.9v65.2h-40.2v-17.7h-31.9v22.8h-7.3v-15.8h-48.7v-51.9h-21.5l-28.4,3v38.8h-14.6v-50h-46
	v19.8h-15.7v-11.8h-29.4v19h-20v4h-6.7v14.6h-8.9V213h-11.1v6.3h-10.3v-5.9h-13.9v5.9H462V205h-6.8v9.5h-20v-5.1h-23.7v10.1H398
	v11.8h-8.5v-7.6H343V212h-6.1v-94.7h-10.4V99.7h-17.4v2.5h-32.5l-1.9-2l-2.1,16.3H182v112.7h-70.6v-11H89.3v6.5L66.6,216H0v240
	h1438.3l0.7-302.1L1426.1,156.1z"/>
</svg>
