<?xml version="1.0" encoding="utf-8"?>
<!-- Generator: Adobe Illustrator 22.0.1, SVG Export Plug-In . SVG Version: 6.00 Build 0)  -->
<svg version="1.1" id="Layer_1" xmlns="http://www.w3.org/2000/svg" xmlns:xlink="http://www.w3.org/1999/xlink" x="0px" y="0px"
	 viewBox="0 0 60 41.6" style="enable-background:new 0 0 60 41.6;" xml:space="preserve">
<style type="text/css">
	.st0{fill:#F8F8F7;}
</style>
<path id="ip8ma" class="st0" d="M60,27c0,3.8-3.2,7.2-8.4,9.7l0.9,3.6c0.2,0.9-0.6,1.6-1.4,1.2l-5.3-2.7C40.7,40.3,35.4,41,30,40.9
	c-16.6,0-30-6.2-30-14c0-4.5,4.6-8.6,11.8-11.1c0-0.1,0-0.1,0-0.2c0.5-4.8,3-9.1,6.8-12c3.8-2.9,8.6-4.1,13.3-3.5
	c8.2,1,14.7,7.4,15.9,15.6C55.2,18.3,60,22.4,60,27 M21.7,8.1c-2.1,1.6-3.5,3.8-4.3,6.3c4.1-0.9,8.3-1.3,12.5-1.3
	c4.3,0,8.4,0.4,12.1,1.2c-1.8-5.3-6.9-8.9-12.5-9C26.6,5.4,23.9,6.4,21.7,8.1 M15.6,31.9c2.7,0,4.8-2.3,4.8-5.1
	c0-2.8-2.2-5.1-4.8-5.1s-4.8,2.3-4.8,5.1C10.8,29.6,13,31.9,15.6,31.9 M30,31.9c2.7,0,4.8-2.3,4.8-5.1c0-2.8-2.2-5.1-4.8-5.1
	s-4.8,2.3-4.8,5.1C25.2,29.6,27.3,31.9,30,31.9 M44.4,31.9c2.7,0,4.8-2.3,4.8-5.1c0-2.8-2.2-5.1-4.8-5.1s-4.8,2.3-4.8,5.1
	C39.6,29.6,41.8,31.9,44.4,31.9"/>
</svg>
