<?xml version="1.0" encoding="utf-8"?>
<!-- Generator: Adobe Illustrator 22.0.1, SVG Export Plug-In . SVG Version: 6.00 Build 0)  -->
<svg version="1.1" id="Layer_1" xmlns="http://www.w3.org/2000/svg" xmlns:xlink="http://www.w3.org/1999/xlink" x="0px" y="0px"
	 viewBox="0 0 60 60" style="enable-background:new 0 0 60 60;" xml:space="preserve">
<style type="text/css">
	.st0{fill:#EFEFEF;}
</style>
<path id="nbbva" class="st0" d="M47.2,23.1c0.5,11.5-8.1,24.4-23.3,24.4c-4.6,0-9-1.4-12.6-3.7c4.3,0.5,8.7-0.7,12.2-3.4
	c-3.5-0.1-6.6-2.4-7.7-5.7c1.3,0.2,2.6,0.2,3.7-0.1c-3.9-0.8-6.6-4.2-6.6-8.1c1.1,0.6,2.4,1,3.7,1c-3.6-2.4-4.7-7.2-2.5-11
	c4.2,5.1,10.3,8.2,16.9,8.6c-1-4.4,1.7-8.8,6.1-9.9c2.9-0.7,5.8,0.2,7.8,2.4c1.8-0.4,3.6-1,5.2-2c-0.6,1.9-1.9,3.5-3.6,4.5
	c1.7-0.2,3.2-0.6,4.7-1.3C50.1,20.5,48.8,21.9,47.2,23.1L47.2,23.1z M0,0v60h60V0H0z"/>
</svg>
